# xmcd
#
# Track frame offsets:
#	150
#	17602
#	35645
#	50792
#	65037
#	77685
#	93332
#	108775
#	126850
#	142357
#
# Disc length: 2099 seconds
#
# Revision: 0
# Processed by: cddbd v1.4b42PL1 Copyright (c) Steve Scherf et al.
# Submitted via: OrangeCD 4.1
#
DISCID=8d08310a
DTITLE=Bellamy Brothers - At Their Best
DYEAR=1900
DGENRE=
TTITLE0=Hard Way To Make An Easy Living
TTITLE1=Old Hippie
TTITLE2=Redneck Girl
TTITLE3=If I Said You Had A Beautiful Body Would You Hold It Against Me
TTITLE4=Let Your Love Flow
TTITLE5=Cowboy Beat
TTITLE6=I'd Lie To You For Your Love
TTITLE7=She's Gone With The Wind
TTITLE8=Kids Of The Baby Boom
TTITLE9=Can I Come On Home To You
EXTD=
EXTT0=
EXTT1=
EXTT2=
EXTT3=
EXTT4=
EXTT5=
EXTT6=
EXTT7=
EXTT8=
EXTT9=
PLAYORDER=
